<?xml version="1.0" encoding="UTF-8" standalone="no"?>
<!-- Created with Inkscape (http://www.inkscape.org/) -->

<svg
   version="1.1"
   id="svg1"
   width="923"
   height="923"
   viewBox="0 0 923 923"
   sodipodi:docname="logotyp-WM-druk-5px.svg"
   inkscape:version="1.3.2 (091e20e, 2023-11-25, custom)"
   xmlns:inkscape="http://www.inkscape.org/namespaces/inkscape"
   xmlns:sodipodi="http://sodipodi.sourceforge.net/DTD/sodipodi-0.dtd"
   xmlns="http://www.w3.org/2000/svg"
   xmlns:svg="http://www.w3.org/2000/svg">
  <defs
     id="defs1">
    <inkscape:path-effect
       effect="powermask"
       id="path-effect15"
       is_visible="true"
       lpeversion="1"
       uri="#mask-powermask-path-effect15"
       invert="false"
       hide_mask="false"
       background="true"
       background_color="#ffffffff" />
    <inkscape:path-effect
       effect="powermask"
       id="path-effect10"
       is_visible="true"
       lpeversion="1"
       uri="#mask-powermask-path-effect10"
       invert="false"
       hide_mask="false"
       background="true"
       background_color="#ffffffff" />
    <mask
       maskUnits="userSpaceOnUse"
       id="mask-powermask-path-effect15">
      <path
         id="path15"
         style="fill:#ffffff;fill-opacity:1"
         d="M -1,-1 H 681 V 925.22577 H -1 Z" />
      <g
         id="g17"
         inkscape:label="W-mask"
         style="display:inline"
         transform="scale(1,1.001328)">
        <rect
           style="display:inline;fill:#000000;stroke-width:9.94335"
           id="rect15"
           width="49"
           height="267.35458"
           x="194"
           y="486.64542"
           inkscape:label="small-rect-1"
           transform="scale(1,0.99867374)" />
        <rect
           style="display:inline;fill:#000000;stroke-width:9.94337"
           id="rect16"
           width="49"
           height="267.35458"
           x="436"
           y="486.64542"
           inkscape:label="small-rect-2"
           transform="scale(1,0.99867374)" />
        <path
           style="display:inline;fill:#000000;stroke-width:10.599"
           id="path16"
           sodipodi:type="arc"
           sodipodi:cx="218.5"
           sodipodi:cy="754"
           sodipodi:rx="24.5"
           sodipodi:ry="24.532537"
           sodipodi:start="0"
           sodipodi:end="3.1415927"
           sodipodi:arc-type="slice"
           inkscape:label="small-arc-1"
           transform="scale(1,0.99867374)" />
        <path
           style="display:inline;fill:#000000;stroke-width:10.599"
           id="path17"
           sodipodi:type="arc"
           sodipodi:cx="460.5"
           sodipodi:cy="754"
           sodipodi:rx="24.5"
           sodipodi:ry="24.532537"
           sodipodi:start="0"
           sodipodi:end="3.1415927"
           sodipodi:arc-type="slice"
           inkscape:label="small-arc-2"
           transform="scale(1,0.99867374)" />
      </g>
    </mask>
    <filter
       id="mask-powermask-path-effect12_inverse"
       inkscape:label="filtermask-powermask-path-effect12"
       style="color-interpolation-filters:sRGB"
       height="100"
       width="100"
       x="-50"
       y="-50">
      <feColorMatrix
         id="mask-powermask-path-effect12_primitive1"
         values="1"
         type="saturate"
         result="fbSourceGraphic" />
      <feColorMatrix
         id="mask-powermask-path-effect12_primitive2"
         values="-1 0 0 0 1 0 -1 0 0 1 0 0 -1 0 1 0 0 0 1 0 "
         in="fbSourceGraphic" />
    </filter>
  </defs>
  <sodipodi:namedview
     id="namedview1"
     pagecolor="#ffffff"
     bordercolor="#000000"
     borderopacity="0.25"
     inkscape:showpageshadow="2"
     inkscape:pageopacity="0.0"
     inkscape:pagecheckerboard="0"
     inkscape:deskcolor="#d1d1d1"
     inkscape:zoom="0.57824074"
     inkscape:cx="460.01601"
     inkscape:cy="405.54043"
     inkscape:window-width="1920"
     inkscape:window-height="1027"
     inkscape:window-x="-8"
     inkscape:window-y="-8"
     inkscape:window-maximized="1"
     inkscape:current-layer="svg1" />
  <g
     id="g1"
     inkscape:label="W"
     style="display:inline;fill:none;stroke:#000000;stroke-width:5.02723;stroke-dasharray:none;stroke-opacity:1"
     transform="matrix(0.99457929,0,0,0.99458649,2.5016504,2.4983506)">
    <path
       id="rect1"
       style="display:inline;fill:none;stroke:#000000;stroke-width:5.03057;stroke-dasharray:none;stroke-opacity:1"
       inkscape:label="rect-1"
       d="m 0,0 v 754 a 170,170.22577 0 0 0 85,147.42013 170,170.22577 0 0 0 170,0 A 170,170.22577 0 0 0 340,754 a 170,170.22577 0 0 0 85,147.42013 170,170.22577 0 0 0 170,0 A 170,170.22577 0 0 0 680,754 V 486.64542 H 486 V 754 a 24.5,24.532537 0 0 1 -12.25,21.24497 24.5,24.532537 0 0 1 -24.5,0 A 24.5,24.532537 0 0 1 437,754 V 486.64542 H 243 V 754 a 24.5,24.532537 0 0 1 -12.25,21.24497 24.5,24.532537 0 0 1 -24.5,0 A 24.5,24.532537 0 0 1 194,754 V 486.64542 0 Z"
       transform="scale(1,0.99867374)" />
  </g>
  <g
     id="g8"
     inkscape:label="M"
     transform="matrix(-0.99457929,0,0,-0.99458649,920.49833,920.50168)"
     style="fill:none;stroke:#000000;stroke-width:5.02723;stroke-dasharray:none;stroke-opacity:1">
    <path
       id="path2"
       style="display:inline;fill:none;stroke:#000000;stroke-width:5.03057;stroke-dasharray:none;stroke-opacity:1"
       inkscape:label="rect-1"
       d="M 510,924.22576 A 170,170.22577 0 0 0 595,901.42013 170,170.22577 0 0 0 680,754 V 486.64542 H 486 V 754 a 24.5,24.532537 0 0 1 -12.25,21.24497 24.5,24.532537 0 0 1 -12.25,3.28757 24.5,24.532537 0 0 1 -12.25,-3.28757 A 24.5,24.532537 0 0 1 437,754 V 486.64542 H 243 V 754 a 24.5,24.532537 0 0 1 -12.25,21.24497 24.5,24.532537 0 0 1 -12.25,3.28757 24.5,24.532537 0 0 1 -12.25,-3.28757 A 24.5,24.532537 0 0 1 194,754 V 486.64542 0 H 0 v 754 a 170,170.22577 0 0 0 85,147.42013 170,170.22577 0 0 0 170,0 A 170,170.22577 0 0 0 340,754 a 170,170.22577 0 0 0 85,147.42013 170,170.22577 0 0 0 85,22.80563 z"
       transform="scale(1,0.99867374)" />
  </g>
</svg>
